<svg xmlns="http://www.w3.org/2000/svg" viewBox="0 0 756.1 334"><defs><style>.cls-1{fill:#fff;}</style></defs><g id="Warstwa_2" data-name="Warstwa 2"><g id="Warstwa_1-2" data-name="Warstwa 1"><path class="cls-1" d="M.3,123.2.6,246.5l2.7,9.6C8.4,274.6,17,289.8,30.1,303c12.8,13,29.6,22.6,48.5,27.7l10,2.8,101.5.3c55.8.1,110.9.1,122.4,0l20.8-.3-17.9-24c-9.8-13.2-19.8-26.8-22.3-30.2l-4.5-6.2-90.5-.3-90.5-.3-8-2.7c-9.5-3.3-18.4-8.4-24.4-14.1-5.3-5.1-8.1-9.4-11.2-17.2l-2.4-6-.3-116.3L61.1,0H0Z"/><path class="cls-1" d="M180.3,2c-19.1,4.4-30.1,15-35.9,34.5-1.6,5.5-1.8,13.5-2.1,98.7L142,228h61.1l.2-76.1.3-76.2,4.8,6.2c10.4,13.2,34.8,46.6,65.1,89.1,17.5,24.5,50.7,71.1,73.9,103.7l42.2,59.2h13.8l13.7.1V0h-60V186.1l-6.7-9.8c-3.7-5.4-13.1-18.8-20.9-29.8s-25.4-36-39-55.5C253,37.3,236.2,14.8,228.6,8.1,221.4,1.8,217.2.6,202.1.3,191.7.1,186.7.5,180.3,2Z"/><path class="cls-1" d="M485,41.2c-15.5,22.7-34.1,49.8-41.2,60.3s-14.3,20.6-15.7,22.5l-2.7,3.5,11.6,22c30.9,58.2,68.9,130.5,88.3,168l8.3,16,15.5.3,15.5.2,7.7-13.2c4.2-7.3,18.3-31.8,31.3-54.3s52.3-91,87.2-152S754.7,3.1,755.2,2.5a3.15,3.15,0,0,0,.9-1.7c0-.4-16.6-.8-36.9-.8h-37L663.8,33.2C629.7,94.7,597,153.3,581.8,180c-8.2,14.6-18.4,32.7-22.6,40.2-7,12.6-9.1,15.6-9.1,12.8,0-1-7.8-16.2-41.1-80.2l-13.9-26.6,9.3-12.9c18-24.6,43.5-62.2,70.3-103.6L581.1,0H513.3Z"/></g></g></svg>